<svg xmlns="http://www.w3.org/2000/svg" viewBox="0 0 120 103">
<!-- SVG created with Arrow, by QuiverAI (https://quiver.ai) -->
  <style type="text/css">.cls-0 {fill:#FCF9F7;}
.cls-1 {fill:url(#SVGID_1_);}</style>
  <linearGradient id="SVGID_1_" x1="28.68" x2="84.35" y1="7.823" y2="98.1" gradientUnits="userSpaceOnUse">
    <stop stop-color="#9668EC" offset="0"/>
    <stop stop-color="#6644D1" offset="1"/>
  </linearGradient>
  <path class="cls-1" d="m98.1 64.8c0.1-0.5 0.5-1 0.9-1.2 9.6-6.1 17.1-16.2 19.3-27.3 0.1-0.7-0.1-1.6-0.7-0.8-9.7 12.5-20.6 19.6-31.9 21.3-8.5 1.3-16.5 0.6-24.8-2.3-7.9-2.7-14.8-6.5-24.6-7.5-8.8-0.8-17.6 1.2-26.1 8.3-0.2 0.2-0.3 0.1-0.1-0.2 3.7-5.7 13.9-14.9 26.3-16 9.3-0.8 15.7 1.2 22.4 3.6 7.8 2.7 14.5 5.8 23.1 6 4.7 0.1 9.8-0.7 15.3-3 0.7-0.2 0.9-0.8 0.9-1.5v-5.1c0-14.8-12-30.2-28.1-30.2h-40.5c-15.9 0-28.2 14.4-28.3 30.4v33.2c0 2.4 3 3.6 4.4 1.5 6.3-7.3 16.2-13.4 28.2-13.8 7.9-0.3 15.6 1.6 24.5 6.1 0.5 0.2 0.5 0.3 0.1 0.2-2.9-0.5-6-0.8-9-0.8-20.4 0.1-37.2 13.7-39.4 32.7-0.2 2.5 2.8 4.2 4.8 2.4 6.1-6.2 14.3-10.8 24.1-11.1h29.1c12.4 0 24.8-8 29.8-23.3l0.3-1.6zm-0.8-48c0 0.3 0.3 0.6 0.5 0.6 6 1.5 8.8 4.5 10 12.9 0.1 0.6 1 0.8 1.1 0 1.2-8.4 3.8-11.3 9.3-12.7 0.3-0.1 0.6-0.4 0.6-0.8 0-0.3-0.3-0.7-0.6-0.7-6.1-1.6-8.4-5-9.3-14.4-0.1-0.7-0.9-0.7-1 0-0.9 7.9-2.9 12.5-10.3 14.4-0.2 0-0.7 0.3-0.3 0.7z"/>
</svg>